<?xml version="1.0" encoding="utf-8"?>
<!-- Svg Vector Icons : http://www.onlinewebfonts.com/icon -->
<!DOCTYPE svg PUBLIC "-//W3C//DTD SVG 1.1//EN" "http://www.w3.org/Graphics/SVG/1.1/DTD/svg11.dtd">
<svg version="1.1" xmlns="http://www.w3.org/2000/svg" xmlns:xlink="http://www.w3.org/1999/xlink" x="0px" y="0px" viewBox="0 0 1000 1000" enable-background="new 0 0 1000 1000" xml:space="preserve">
<metadata> Svg Vector Icons : http://www.onlinewebfonts.com/icon </metadata>
<g><path d="M886.8,811.8H113.2c-57,0-103.2-46.5-103.2-103.9V292.1c0-57.4,46.2-103.9,103.2-103.9h773.7c57,0,103.2,46.5,103.2,103.9v415.8C990,765.3,943.8,811.8,886.8,811.8z M281.2,463.8c2.9-12.2,7.6-23.2,13.9-32.7c6.3-9.7,14.7-17.3,24.9-23c10.3-5.7,22.7-8.6,37.4-8.6c8,0,15.7,1.3,23,3.9c7.3,2.7,13.9,6.4,19.7,11.1c5.9,4.8,10.7,10.3,14.5,16.5c3.9,6.2,6.3,13.1,7.5,20.7H485c-1.9-17.2-6.6-32.6-14.1-45.9c-7.4-13.4-16.9-24.6-28.4-33.7c-11.5-9-24.5-15.9-39-20.7c-14.4-4.7-29.9-7.1-46.2-7.1c-22.7,0-43.1,4.1-61.2,12.2c-18,8-33.4,19.2-45.9,33.4c-12.4,14.2-21.9,30.9-28.5,49.9c-6.7,19.1-10,39.8-10,62.1c0,21.7,3.3,42,10,60.8c6.6,18.8,16.2,35.2,28.6,49.1c12.4,13.9,27.7,24.9,45.8,32.8c18.1,8,38.5,11.9,61.2,11.9c18.3,0,35-2.7,50.2-8.3c15.3-5.6,28.5-13.7,39.8-24.3c11.4-10.6,20.4-23.4,27.4-38.5c6.9-15.1,11.2-31.8,12.9-50.6h-63c-2.5,20.1-9.3,36.2-20.5,48.5c-11.2,12.3-26.8,18.4-46.8,18.4c-14.6,0-27.1-2.9-37.4-8.6c-10.2-5.7-18.6-13.3-24.8-22.7c-6.3-9.4-11-20.1-13.9-32c-2.9-12-4.3-24.1-4.3-36.6C276.8,488.7,278.2,475.9,281.2,463.8L281.2,463.8L281.2,463.8L281.2,463.8z M588.6,463.8c2.9-12.2,7.5-23.2,13.9-32.7c6.3-9.7,14.6-17.3,24.8-23c10.3-5.7,22.7-8.6,37.4-8.6c8,0,15.7,1.3,23,3.9c7.2,2.7,13.9,6.4,19.6,11.1c5.9,4.8,10.7,10.3,14.6,16.5c3.9,6.2,6.3,13.1,7.4,20.7h63.1c-2-17.2-6.7-32.6-14.2-45.9c-7.4-13.4-16.9-24.6-28.3-33.7c-11.5-9-24.5-15.9-39-20.7c-14.5-4.7-29.9-7.1-46.3-7.1c-22.7,0-43.1,4.1-61.2,12.2c-18.1,8-33.4,19.2-45.9,33.4c-12.4,14.2-21.9,30.9-28.6,49.9c-6.6,19.1-9.9,39.8-9.9,62.1c0,21.7,3.3,42,9.9,60.8c6.7,18.8,16.2,35.2,28.6,49.1c12.4,13.9,27.8,24.9,45.9,32.8c18.1,8,38.4,11.9,61.1,11.9c18.2,0,34.9-2.7,50.2-8.3c15.2-5.6,28.5-13.7,39.8-24.3c11.4-10.6,20.5-23.4,27.4-38.5c7-15.1,11.3-31.8,12.9-50.6h-63c-2.6,20.1-9.3,36.2-20.6,48.5c-11.2,12.3-26.8,18.4-46.7,18.4c-14.6,0-27.1-2.9-37.4-8.6c-10.3-5.7-18.6-13.3-24.9-22.7c-6.4-9.4-11-20.1-13.9-32c-2.9-12-4.3-24.1-4.3-36.6c0-13.1,1.4-25.8,4.3-38L588.6,463.8L588.6,463.8L588.6,463.8z"/></g>
</svg>