<svg version="1" xmlns="http://www.w3.org/2000/svg" width="17.5" height="14.663" fill="#fff" viewBox="0 0 17.5 14.663"><path fill-rule="evenodd" clip-rule="evenodd" d="M11.283.153c1.736-.484 3.074.264 3.685 1.15.694-.225 1.372-.47 2.072-.69-.004.84-.538 1.478-.883 1.728.704.17 1.343-.48 1.343-.48-.175.98-1.035 1.75-1.61 1.98-.24 6.59-3.273 10.956-10.383 10.823h-.46c-.422 0-4.29-.45-5.047-1.842 2.34.193 4.01-.41 4.835-1.15-.99-.292-2.76-.463-3.07-2.88.362.105.583.223 1.228.117C1.757 8.067.385 7.367.46 5.217c.295.32 1.1.524 1.382.46C1.117 5.446-.188 2.4.922.845 2.794 2.656 4.77 4.364 8.29 4.53 8.506 2.29 9.46.79 11.283.153z"/></svg>