<svg version="1" xmlns="http://www.w3.org/2000/svg" width="255.917" height="28.91" fill="#766357" viewBox="0 0 255.917 28.91"><path d="M64 14.454l-.203.23c-1.353 1.468-3.023 2.188-4.52 2.217l2.82-4.86c1.815-3.14.145-6.1-2.677-6.1-2.304 0-4.09.92-5.816 3.92l-1.468 2.56-1.227 2.1-.16.18c-2.16 2.51-4.26 4.49-5.59 4.49-.67 0-1.04-.46-.35-1.64l6.42-11.2h2.45l.86-1.44h-2.47L54.9 0h-2.995l-2.822 4.895h-2.707l-.864 1.44h2.735l-6.02 10.423c-1.27 2.217-.38 4.262 2.04 4.262 1.74 0 3.66-1.31 5.51-3.084-.005 3.816 5.3 4.56 8.54.463h.66c1.786 0 4.608-1.1 6.134-2.91-.2-.41-.72-.87-1.12-1.04zm-6.393.202h-.144c-.98 0-1.756.806-1.756 1.786 0 .373.115.72.288 1.008l-.03.057c-1.41 2.42-4.836 1.958-3.05-1.15l2.273-3.946 1.44-2.44c2.102-3.57 4.98-2.16 3.167.95l-2.188 3.74zm47.848-.202l-.202.23c-2.16 2.505-4.924 4.49-7.025 4.49-1.843 0-2.937-1.15-1.555-3.57l.288-.518c1.93.806 5.56.432 7.81-3.455l.43-.74c1.61-2.76.06-4.83-2.39-4.83-2.42 0-4.35 1.27-5.61 3.46l-2.91 4.98-.17.2c-2.16 2.507-4.26 4.49-5.58 4.49-.66 0-1.033-.46-.342-1.64l4.32-7.57c1.293-2.28.055-3.92-1.617-3.92-1.294 0-2.68.72-4.174 2.275L91.49 0h-2.995L80.14 14.492l-.167.192c-2.16 2.505-4.26 4.49-5.586 4.49-.67 0-1.04-.46-.35-1.64l6.42-11.2h2.45l.86-1.44H81.3L84.123 0h-2.995l-2.822 4.895H75.6l-.864 1.44h2.735l-6.01 10.423c-1.26 2.217-.37 4.262 2.05 4.262 1.22 0 2.52-.64 3.82-1.627l-.77 1.338h3.03l4.55-7.91c4.61-5.79 6.65-5.04 5.36-2.82l-3.89 6.77c-1.266 2.22-.373 4.26 2.045 4.26 1.78 0 3.755-1.37 5.645-3.21.143 1.87 1.652 3.22 4.053 3.22 3.395 0 6.764-2.644 9.24-5.524-.2-.404-.716-.864-1.12-1.037zm-5.7-4.204c1.727-2.965 4.78-2.476 2.994.634l-.44.75c-1.44 2.446-3.37 2.39-4.49 1.986l1.93-3.37zm114.87 4.204l-.2.23a18.8 18.8 0 0 1-3.6 3.253c.95-2.85.747-7.227 2.59-11.056l-2.245-1.2c-1.24 1.7-3.95 5.62-6.658 8.79l-.2.23c-2.16 2.51-4.26 4.49-5.586 4.49-.66 0-1.036-.46-.345-1.64l6.4-11.2h-2.99l-5.33 9.3c-2.27 2.07-4.03 3.23-4.6 2.97-.75-.315 0-1.44.374-2.07l5.844-10.19h-2.994l-4.698 8.123-.2.227c-1.355 1.467-3.024 2.187-4.52 2.216l2.82-4.864c1.813-3.14.144-6.104-2.68-6.104-2.305 0-4.09.924-5.817 3.92l-1.47 2.562-1.227 2.096-.16.177c-2.16 2.51-4.92 4.49-7.02 4.49-1.84 0-2.934-1.15-1.55-3.57l.29-.513c1.93.807 5.555.43 7.8-3.454l.43-.75c1.613-2.762.06-4.835-2.39-4.835-2.42 0-4.347 1.266-5.614 3.454l-2.905 4.98-.173.2c-2.475 2.85-4.605 4.69-6.967 5.7l6.71-11.46h-1.76c0-1.238-1.267-2.88-3.138-2.88-1.61 0-3.854 1.27-5.122 3.456l-2.87 4.954-.005-.002-.2.23c-2.16 2.506-4.264 4.49-5.588 4.49-.66 0-1.04-.46-.35-1.64l2.995-5.24c1.034-1.814.545-2.88-.435-4.06l-1.67-2.02c-.43-.55-.43-1.154.174-1.73l-1.556-1.7c-1.7 1.527-1.84 3.226-.775 4.61l.26.344c-1.323 1.87-3.11 4.404-5.066 6.71l-.2.23c-1.356 1.466-3.025 2.186-4.52 2.215l2.82-4.87c1.812-3.136.143-6.102-2.68-6.102-2.304 0-4.09.92-5.816 3.92l-1.47 2.56-1.228 2.1-.15.177c-2.474 2.85-4.604 4.692-6.965 5.7l6.71-11.46h-1.76c0-1.24-1.267-2.88-3.14-2.88-1.61 0-3.857 1.267-5.124 3.455l-4.203 7.255c-1.265 2.22-.37 4.26 2.046 4.26.834 0 1.842-.37 2.85-1.004l-.835 1.41c-4.03 1.24-6.567 2.88-6.567 5.128 0 2.88 4.405 3.485 6.565-.2l2.274-3.945c2.394-.747 4.74-2.156 7.18-4.48-.024 3.83 5.29 4.583 8.54.48h.66c1.784 0 4.606-1.096 6.13-2.91 1.44-1.67 2.56-3.17 4.95-6.42l.405.49c.375.49.52 1.093.174 1.7l-3.17 5.5c-1.27 2.215-.38 4.26 2.04 4.26 1.516 0 3.174-.997 4.8-2.43-.05 1.39.88 2.43 2.596 2.43.837 0 1.845-.375 2.85-1.01l-.832 1.41c-4.032 1.234-6.57 2.874-6.57 5.12 0 2.88 4.408 3.485 6.567-.2l2.273-3.945c2.44-.76 4.83-2.21 7.315-4.612.13 1.878 1.643 3.24 4.053 3.24 2.44 0 4.86-1.368 6.95-3.2-.12 3.92 5.266 4.72 8.54.58h.663c.937 0 2.157-.31 3.33-.858-.807 2.08-.065 3.477 1.65 3.477 1.64 0 3.48-1.5 4.92-2.88-.29 1.61.66 2.88 2.56 2.88 2.474 0 5.324-2.65 7.8-5.53 1.7-1.96 3.195-4.06 4.26-5.47-1.18 3.11-.547 8.695-3.397 8.695-1.01 0-1.41-1.094-1.41-1.094l-1.874.98s.543 2.42 3.28 2.42c.285 0 .545-.03.832-.06.03 0 .06-.03.09-.03 3.05-.402 6.074-2.82 8.32-5.44-.174-.46-.693-.92-1.124-1.037zM171.64 10.25c1.73-2.965 4.78-2.476 2.995.634l-.432.75c-1.44 2.446-3.37 2.39-4.492 1.986l1.93-3.37zm-57.175 15.605c-.634 1.123-1.64.95-1.64.145 0-.777.72-1.67 2.993-2.562l-1.353 2.417zm1.382-6.68c-.662 0-1.037-.46-.345-1.64l4.175-7.285c1.612-2.793 4.81-2.073 3.34.634l-2.274 3.973c-1.815 2.91-3.63 4.32-4.896 4.32zm18.397-4.52h-.145c-.98 0-1.76.807-1.76 1.787 0 .373.11.72.29 1.008l-.03.057c-1.41 2.42-4.84 1.958-3.05-1.15l2.27-3.946 1.44-2.44c2.1-3.57 4.98-2.16 3.16.95l-2.19 3.74zm18.827 11.2c-.63 1.123-1.64.95-1.64.145 0-.777.72-1.67 3-2.562l-1.35 2.417zm1.39-6.68c-.66 0-1.03-.46-.34-1.64l4.18-7.285c1.61-2.793 4.81-2.073 3.34.634l-2.27 3.973c-1.813 2.91-3.63 4.32-4.894 4.32zm29.54-4.52h-.14c-.98 0-1.75.807-1.75 1.787 0 .373.12.72.29 1.008l-.03.057c-1.41 2.42-4.833 1.958-3.05-1.15l2.28-3.946 1.44-2.44c2.102-3.57 4.98-2.16 3.167.95l-2.2 3.74zM0 11.275h28.917v1.958H0zm227 0h28.918v1.958H227z"/></svg>