<svg version="1" xmlns="http://www.w3.org/2000/svg" width="74.696" height="72.345" fill="#81b3d2" viewBox="0 0 74.696 72.345"><path d="M29.503 43.845v21.5h16V41.407h-16v2.438zm13.063 18.562H32.44V44.345h10.126v18.062z"/><path d="M72.62 39.44l2.076-2.078-9.908-9.913V.47H50.974v13.162L37.35 0 0 37.363l2.077 2.078 7.832-7.83v37.8H5.97v2.937h63.876V69.41h-5.06v-37.8l7.834 7.83zM53.913 3.408h7.938v21.104l-7.936-7.94V3.408zm7.937 66H12.846V28.67l24.502-24.5 24.502 24.5v40.737z"/><path d="M29.753 27.21a7.75 7.75 0 1 0 15.5 0 7.75 7.75 0 0 0-15.5 0zm7.75-4.97a4.97 4.97 0 1 1 0 9.94 4.97 4.97 0 0 1 0-9.94zM16.91 41.407h3v3.938h-3zm5.936 0h3v3.938h-3zm-5.936 6h3v3.938h-3zm5.936 0h3v3.938h-3zm26-6h3v3.938h-3zm5.938 0h3v3.938h-3zm-5.938 6h3v3.938h-3zm5.938 0h3v3.938h-3z"/></svg>