<?xml version="1.0" encoding="utf-8"?>
<!-- Svg Vector Icons : http://www.onlinewebfonts.com/icon -->
<!DOCTYPE svg PUBLIC "-//W3C//DTD SVG 1.1//EN" "http://www.w3.org/Graphics/SVG/1.1/DTD/svg11.dtd">
<svg version="1.1" xmlns="http://www.w3.org/2000/svg" xmlns:xlink="http://www.w3.org/1999/xlink" x="0px" y="0px" viewBox="0 0 1000 1000" enable-background="new 0 0 1000 1000" xml:space="preserve">
<metadata> Svg Vector Icons : http://www.onlinewebfonts.com/icon </metadata>
<g><path d="M692.8,67.5c31.3,0.1,64.6,17.3,64.7,65.1c-0.1,2.6-1.5,27-32.9,134c-17,57.6-34.1,110.1-34.2,110.6l-24.6,75.3H745h67.3c16.3,1.8,39.7,8.9,58.9,24c17.7,13.9,26.3,30.2,26.3,49.7c0,64.5-13.5,152.4-36.9,241.1c-23.9,90.3-47.3,140.7-54.7,150.8c-2.5,2-12.1,7-32,10.8c-15,2.8-28,3.5-30.7,3.6H431.6c-11.6-0.8-39.1-6.8-69.2-16.6c-24-7.8-40.2-14.9-50-20V479.5c23.5-24.3,69.2-71.7,116-120.8c138.1-145,150.5-163.1,155.8-170.8c1.6-2.4,3.4-5.1,5.4-8c12.4-18.4,33.2-49.1,56.1-74.6C676.3,71.3,691.4,67.7,692.8,67.5 M692.5,10C631.1,10,561,120.2,536.9,155.4C512.8,190.7,255,456.2,255,456.2V920c3.5,28.2,131.9,68,175,70h314.1c0,0,78.7-1.7,105.9-35c35.4-43.3,105-271.3,105-428.8c0-82.9-82-126.4-140-131.2h-70c0,0,70.1-214.3,70-262.5C814.9,56.5,760.2,10,692.5,10L692.5,10z"/><path d="M150,955h-35c-38.7,0-70-31.3-70-70V500c0-38.7,31.3-70,70-70h35c19.3,0,35,15.7,35,35v455C185,939.3,169.3,955,150,955z"/></g>
</svg>