<svg version="1" xmlns="http://www.w3.org/2000/svg" width="293.826" height="79.393" fill="#fff" viewBox="0 0 293.826 79.393"><path d="M33.42 17.06c7.657-2.59 8.24-12.18.692-12.18-2.08 0-4.56 1.458-6.272 4.448l-10.212 17.65c-.474.84-.948 1.533-1.458 2.152-2.626-3.61-1.86-9.007 1.823-11.378L16.46 15.82c-7.95 5.068-5.615 19.692 7.66 19.692 11.342 0 16.593-13.602 9.3-18.452zm-9.373 15.535c-2.26 0-4.048-.51-5.47-1.313.657-.766 1.313-1.714 1.896-2.7l6.382-11.05 1.02.11c8.9 1.86 5.362 14.953-3.828 14.953zM28.13 15.31l3.064-5.252c2.77-4.777 6.31-1.97 4.413 1.604-1.458 2.735-3.61 3.574-7.476 3.647z"/><path d="M65.5 29.32c-.63 2.25.572 4.077 3.145 4.077 1.532 0 3.428-.985 5.25-2.48.184 1.46 1.35 2.48 3.283 2.48 2.02 0 4.235-1.395 6.394-3.358-.42 2.04.54 3.35 2.41 3.35 2.08 0 4.413-1.9 6.236-3.65-.365 2.04.84 3.64 3.246 3.64 3.136 0 6.747-3.36 9.883-7-.025-.05-.07-.1-.1-.15 2.096-2.44 3.945-5.03 5.267-6.78-1.496 3.94-.693 11.01-4.304 11.01-1.276 0-1.787-1.39-1.787-1.39l-2.37 1.24s.692 3.06 4.156 3.06c.36 0 .69-.036 1.05-.07.03 0 .07-.038.11-.038 2.78-.37 5.55-2.066 7.94-4.226.05 2.494 1.99 4.332 5.14 4.332 4.3 0 8.57-3.358 11.7-7.005-.258-.51-.91-1.096-1.42-1.315l-.26.293c-2.733 3.177-6.234 5.69-8.896 5.69-2.334 0-3.72-1.46-1.97-4.52l.366-.654c2.446 1.02 7.04.546 9.886-4.377l.547-.95c2.042-3.5.073-6.125-3.027-6.125-3.06 0-5.505 1.603-7.11 4.374l-3.68 6.32c-.034-.01-.07-.04-.104-.05l-.256.29c-1.38 1.64-3.06 3.1-4.55 4.12 1.203-3.61.948-9.15 3.28-14.002l-2.843-1.53c-1.567 2.15-4.995 7.11-8.423 11.122.03.048.076.093.11.14l-.133.154c-2.737 3.17-5.4 5.69-7.077 5.69-.84 0-1.316-.584-.44-2.08l8.093-14.187h-3.795L93.71 26.56c-2.88 2.624-5.105 4.082-5.835 3.754-.948-.4 0-1.823.474-2.625l7.4-12.91h-3.78l-6.04 10.45c-.1-.06-.2-.13-.29-.16l-.257.29c-2.736 3.17-5.398 5.69-7.076 5.69-.833 0-1.31-.59-.433-2.08L84 18.26h-2.153c.146-1.605-1.495-3.83-3.975-3.83-2.042 0-4.887 1.605-6.49 4.376l-3.847 6.637a2.813 2.813 0 0 0-.577-.365l-.255.292c-2.735 3.172-6.236 5.69-8.898 5.69-2.334 0-3.72-1.46-1.97-4.523l3.902-6.783c2.188-3.756 6.054-3.136 3.792.802l-.55.948h3.1l.54-.948c2.04-3.5.07-6.127-3.03-6.127-3.07 0-5.51 1.6-7.11 4.37l-3.77 6.46c-.12-.08-.24-.15-.35-.2l-.26.29c-2.74 3.17-6.24 5.683-8.9 5.683-2.34 0-3.72-1.46-1.97-4.52l.36-.656c2.442 1.02 7.04.546 9.882-4.377l.543-.95c2.04-3.5.072-6.125-3.028-6.125-3.067 0-5.51 1.61-7.11 4.38l-3.98 6.82c-2.37 4.05-.327 7.77 4.158 7.77 3.34 0 6.657-2.025 9.442-4.636-.1 2.645 1.863 4.633 5.14 4.633 3.096.003 6.173-1.738 8.825-4.07zm58.028-9.562c2.188-3.756 6.054-3.136 3.792.802l-.547.948c-1.823 3.1-4.267 3.027-5.69 2.516l2.445-4.266zm-54.19 9.227l5.287-9.227c2.042-3.538 6.09-2.626 4.23.802L75.9 25.74c-2.296 3.61-4.558 5.323-6.125 5.323-.84 0-1.313-.583-.438-2.078zm-24.185-9.227c2.188-3.756 6.054-3.136 3.792.802l-.547.948c-1.823 3.1-4.267 3.027-5.69 2.516l2.445-4.266zm128.584 13.64c4.304 0 8.57-3.356 11.706-7.003-.255-.51-.91-1.094-1.422-1.313l-.25.292c-2.73 3.172-6.23 5.69-8.9 5.69-2.33 0-3.72-1.46-1.97-4.523l.37-.65c2.45 1.02 7.04.55 9.89-4.37l.55-.95c2.04-3.5.078-6.12-3.022-6.12-3.064 0-5.51 1.61-7.11 4.38l-3.696 6.338c-.037-.02-.077-.05-.113-.063l-.255.295c-2.736 3.174-5.4 5.69-7.076 5.69-.84 0-1.32-.58-.44-2.08l5.47-9.59c1.64-2.88.07-4.96-2.04-4.96-1.648 0-3.398.91-5.29 2.88l6.05-10.54h-3.793L151.7 25.357a2.71 2.71 0 0 0-.433-.25l-.256.293c-2.73 3.17-5.393 5.69-7.07 5.69-.837 0-1.31-.582-.437-2.08l8.134-14.185h3.1l1.09-1.825h-3.136l3.573-6.2h-3.795l-3.574 6.2h-3.43l-1.09 1.824h3.464L140.2 28c-1.605 2.808-.475 5.397 2.588 5.397 1.885 0 3.94-1.216 5.962-2.975l-1.504 2.61h3.83l5.762-10.03c5.835-7.33 8.424-6.38 6.783-3.573L158.7 28c-1.604 2.808-.475 5.397 2.59 5.397 2.304 0 4.863-1.813 7.303-4.22.113 2.438 2.043 4.22 5.147 4.22zm3.063-13.64c2.188-3.756 6.054-3.136 3.793.802l-.547.948c-1.824 3.1-4.268 3.027-5.69 2.516l2.444-4.266zm111.956 5.325l-.256.292c-2.734 3.172-5.397 5.69-7.074 5.69-.84 0-1.313-.584-.438-2.08l12.837-22.21h-3.793l-5.58 9.63c-.656-1.06-1.896-1.97-3.464-1.97-2.043 0-4.888 1.604-6.492 4.375l-3.71 6.406c-.08-.047-.163-.1-.238-.133l-.256.292c-2.734 3.172-5.396 5.69-7.074 5.69-.84 0-1.313-.584-.438-2.08l5.47-9.59c1.642-2.882.073-4.96-2.042-4.96-1.642 0-3.355.874-5.252 2.844l1.423-2.48h-3.8l-6.06 10.48c-.13-.08-.25-.16-.36-.21l-.26.29c-2.74 3.17-5.4 5.69-7.08 5.69-.84 0-1.31-.59-.44-2.08l6.123-10.73h-2.15c.147-1.605-1.494-3.83-3.974-3.83-2.044 0-4.89 1.605-6.493 4.38l-3.665 6.33-.208.23c-2.736 3.176-5.4 5.69-7.076 5.69-.84 0-1.31-.58-.438-2.08l3.79-6.633c1.31-2.297.69-3.646-.55-5.14l-2.116-2.554c-.548-.695-.548-1.46.22-2.19l-1.97-2.15c-2.15 1.932-2.33 4.083-.984 5.834l.33.44c-1.68 2.37-3.94 5.58-6.42 8.5.075.11.164.216.26.323-3.126 3.594-5.78 5.92-8.764 7.19l4.81-8.24h-3.793l-.4.66c-2.006 3.53-4.304 6.05-7.26 6.05-2.587 0-3.06-2.59-.8-6.456l1.058-1.86c.693.11 1.387.182 2.15.182 13.495 0 20.023-18.054 8.135-18.054-2.08 0-4.56 1.46-6.27 4.45l-5.91 10.173c-2.225-1.17-3.39-3.28-3.39-5.4 0-1.75.8-3.5 2.44-4.78l-1.24-2.223c-2.697 1.933-3.9 4.52-3.9 7.075 0 3.025 1.714 5.942 4.777 7.55l-1.13 1.97c-2.664 4.59-2.19 9.7 3.17 9.7 1.605 0 2.955-.477 4.12-1.207l-.98 1.71c-5.14 1.57-8.314 3.647-8.314 6.49 0 3.65 5.58 4.415 8.31-.253l2.92-4.992c3.94-1.24 7.808-3.94 11.96-8.752a2.542 2.542 0 0 0-.23-.356c1.684-1.98 3.114-3.888 5.97-7.775l.51.62c.475.62.657 1.39.22 2.155l-4.01 6.97c-1.606 2.808-.476 5.397 2.59 5.397 1.905 0 3.987-1.243 6.03-3.035-.043 1.75 1.15 3.04 3.31 3.04 1.533 0 3.43-.98 5.253-2.48.19 1.46 1.35 2.48 3.29 2.48 1.817 0 3.79-1.13 5.74-2.78l-1.4 2.42h3.83l5.8-10.1c5.8-7.257 8.39-6.31 6.747-3.5L259.5 28c-1.605 2.808-.476 5.397 2.588 5.397 2.016 0 4.226-1.388 6.38-3.346-.2 1.91 1.007 3.35 3.295 3.35 1.53 0 3.428-.98 5.25-2.48.184 1.46 1.35 2.48 3.283 2.48 3.137 0 6.747-3.35 9.883-7-.26-.51-.92-1.09-1.43-1.31zm-77.963-14.15c1.13-1.933 2.37-2.77 3.43-2.77 6.017 0 1.786 12.252-8.134 12.252h-.77l5.47-9.482zm-8.06 28.59c-.8 1.423-2.077 1.205-2.077.184 0-.985.875-2.115 3.793-3.246l-1.72 3.07zm39.694-13.784c-2.298 3.61-4.56 5.32-6.127 5.32-.84 0-1.312-.59-.438-2.08l5.288-9.23c2.042-3.54 6.09-2.63 4.23.8l-2.953 5.18zm36.7-.22c-2.297 3.75-4.63 5.54-6.235 5.54-.84 0-1.312-.59-.438-2.08l5.288-9.23c2.042-3.54 6.09-2.63 4.23.8h.036l-2.88 4.96zM162.05 61.08l-.254.293c-2.735 3.172-5.397 5.688-7.075 5.688-.83 0-1.31-.58-.43-2.08l5.47-9.59c1.64-2.88.08-4.96-2.04-4.96-1.64 0-3.35.88-5.25 2.85l1.42-2.48h-3.79l-6.11 10.57c-.16-.12-.33-.22-.48-.29l-.25.3c-1.71 1.86-3.83 2.77-5.72 2.81l3.572-6.16c2.295-3.97.18-7.73-3.394-7.73-2.915 0-5.176 1.17-7.365 4.96l-1.86 3.25-1.625 2.78c-.118-.07-.235-.14-.344-.19l-.252.297c-3.137 3.61-5.8 5.945-8.79 7.22l10.385-17.8h-3.79l-6.71 11.67c-2.92 2.7-5.18 4.195-5.91 3.867-.95-.4 0-1.823.474-2.625l7.404-12.91h-3.79l-6.05 10.47c-.118-.07-.23-.14-.336-.186l-.254.29c-2.73 3.17-5.393 5.69-7.07 5.69-.838 0-1.31-.583-.438-2.08l5.47-9.59c1.64-2.88.07-4.96-2.044-4.96-1.64 0-3.356.875-5.25 2.845l1.42-2.48h-3.8L91.128 61.3a2.646 2.646 0 0 0-.36-.205l-.255.296c-2.74 3.17-5.4 5.686-7.08 5.686-.84 0-1.32-.58-.44-2.08l6.12-10.72h-2.15c.145-1.602-1.496-3.83-3.976-3.83-2.04 0-4.888 1.608-6.49 4.38l-3.92 6.76c-.26-.234-.558-.416-.83-.49l-.256.294c-2.732 3.17-6.09 5.683-9.844 5.683-2.59 0-4.16-2.59-1.898-6.455l1.057-1.86c.694.106 1.387.18 2.15.18 4.05 0 8.645-2.08 11.636-7.295 1.06-1.86 1.53-3.61 1.53-5.103 0-3.43-2.22-5.653-5.03-5.653-2.08 0-4.56 1.46-6.27 4.45L58.91 55.5c-2.22-1.167-3.39-3.28-3.39-5.397 0-1.75.8-3.5 2.445-4.776l-1.24-2.22c-2.7 1.936-3.902 4.52-3.902 7.077 0 3.026 1.715 5.944 4.778 7.55l-1.13 1.97c-2.66 4.594-1.092 9.7 4.27 9.7 4.24 0 7.352-1.89 9.967-4.37-.825 2.38.375 4.37 3.06 4.37 1.53 0 3.428-.986 5.25-2.48.184 1.46 1.35 2.48 3.283 2.48 1.815 0 3.79-1.13 5.74-2.785l-1.4 2.42h3.83l5.8-10.1c5.797-7.26 8.387-6.31 6.746-3.5L98.09 64c-1.604 2.81-.474 5.397 2.59 5.397 2.04 0 4.28-1.425 6.463-3.423-.455 2.086.51 3.423 2.398 3.423 1.83 0 3.91-1.532 5.62-3.063l-2.08 3.574c-5.14 1.53-8.35 3.646-8.35 6.49 0 3.648 5.58 4.414 8.32-.254l2.92-4.996c3.17-.998 6.3-2.965 9.57-6.196-.52 5.297 6.54 6.505 10.79 1.126h.84c1.388 0 3.26-.523 4.95-1.455l-2.544 4.41h3.83L149.2 58.93c5.797-7.25 8.387-6.31 6.746-3.5L151 64c-1.603 2.81-.474 5.397 2.59 5.397 3.137 0 6.747-3.354 9.884-7.002-.256-.51-.912-1.094-1.423-1.313zM67.664 46.93c1.13-1.932 2.37-2.77 3.428-2.77 1.422 0 2.08.948 2.08 2.334 0 3.538-4.304 9.92-10.212 9.92h-.766l5.47-9.483zM81.02 61.74c-2.298 3.61-4.56 5.323-6.128 5.323-.838 0-1.312-.583-.438-2.08l5.288-9.226c2.042-3.537 6.09-2.625 4.23.803l-2.953 5.18zm28.85 13.783c-.803 1.423-2.08 1.204-2.08.184 0-.985.913-2.115 3.83-3.246l-1.75 3.07zm25.527-14.185h-.183c-1.24 0-2.225 1.02-2.225 2.262 0 .474.14.91.36 1.275l-.04.073c-1.79 3.063-6.13 2.48-3.87-1.46l2.88-4.995 1.82-3.1c2.66-4.522 6.31-2.735 4.01 1.204l-2.77 4.74zm114.56 1.058c-.22-.583-.874-1.167-1.42-1.313l-.257.293a23.617 23.617 0 0 1-4.56 4.12c1.205-3.61.95-9.153 3.283-14.004l-2.845-1.532c-1.567 2.152-4.996 7.112-8.424 11.123.006.01.015.018.02.026l-.045-.03-.26.29c-2.74 3.17-5.4 5.69-7.08 5.69-.84 0-1.64-.84-1.64-2.56v-1.56c2.66.32 5.47-1.43 7.25-4.53l1.02-1.75c3.54-6.05-2.23-8.06-6.09-4.52l5.39-9.37h-3.795L219.7 61.54a3.006 3.006 0 0 0-.694-.46l-.255.294c-2.73 3.172-6.23 5.688-8.89 5.688-2.332 0-3.72-1.46-1.97-4.522l3.904-6.78c2.187-3.75 6.053-3.13 3.79.81l-.55.95h3.1l.55-.947c2.04-3.5.074-6.127-3.026-6.127-3.06 0-5.51 1.605-7.11 4.377l-3.735 6.402c-.08-.047-.16-.1-.235-.133l-.255.29c-2.735 3.17-5.397 5.688-7.075 5.688-.84 0-1.31-.582-.43-2.08l8.09-14.185h-3.795l-6.748 11.78c-2.882 2.626-5.106 4.085-5.835 3.757-.95-.4 0-1.822.472-2.624l7.405-12.91h-3.79l-7.36 12.75c-.82.746-1.66 1.413-2.45 1.95 1.203-3.61.948-9.152 3.28-14.003l-2.844-1.533c-1.57 2.15-10.32 13.75-13.75 17.76.33.474.88.95 1.427 1.313 2.15-2.48 9.37-11.78 10.72-13.567-1.5 3.938-.697 11.014-4.308 11.014-1.276 0-1.787-1.387-1.787-1.387l-2.37 1.24s.69 3.06 4.156 3.06c.368 0 .696-.036 1.06-.073.037 0 .074-.037.11-.037 1.926-.252 3.84-1.14 5.63-2.38-.012 1.546.92 2.49 2.51 2.49 2.08 0 4.41-1.894 6.234-3.645-.364 2.044.84 3.648 3.246 3.648 2.354 0 4.98-1.892 7.466-4.38.038 2.52 1.98 4.38 5.15 4.38 3.08 0 6.133-1.72 8.773-4.03l-2.11 3.664h3.83l4.34-7.55v3.026c0 3.246.62 4.888 3.68 4.888 3.136 0 6.746-3.35 9.883-7-.01-.01-.02-.02-.025-.033.017.01.03.03.05.04 2.15-2.48 4.05-5.142 5.39-6.93-1.497 3.94-.69 11.015-4.305 11.015-1.276 0-1.787-1.387-1.787-1.387l-2.37 1.24s.69 3.07 4.158 3.07c.366 0 .694-.032 1.06-.07.038 0 .074-.035.11-.035 3.866-.51 7.695-3.574 10.54-6.892zm-25.187-2.99l1.094-1.897c4.377-6.1 7.367-4.42 6.018-2.12l-1.823 3.13c-1.14 1.97-4.45 3.35-5.29.87zm25.04 5.578c-1.238 0-2.187.984-2.187 2.225s.948 2.18 2.188 2.18c1.24 0 2.23-.95 2.23-2.19s-.98-2.23-2.22-2.23zm.184-1.494h3.83l11.887-20.715h-3.79M5.75 6.9c0 .293-.057.587-.17.88-.112.293-.28.558-.506.795a2.597 2.597 0 0 1-.83.575c-.326.147-.693.22-1.1.22-.45 0-.884-.084-1.3-.253a2.943 2.943 0 0 1-1.066-.728c-.25-.3-.44-.65-.575-1.05A4.06 4.06 0 0 1 0 6.05c0-.85.152-1.64.457-2.363a5.994 5.994 0 0 1 1.302-1.928c.24-.25.52-.48.84-.7.32-.21.62-.4.9-.54.28-.15.52-.27.72-.36.21-.08.33-.14.38-.16l1.35 1.99c-.25.09-.53.21-.83.35-.31.15-.59.33-.86.55-.28.214-.5.47-.68.76a2.25 2.25 0 0 0-.31 1.02c.66 0 1.23.19 1.73.57s.75.938.75 1.66zm7.866 0c0 .293-.057.587-.17.88-.112.292-.28.557-.506.794-.226.237-.502.43-.83.575-.327.14-.693.22-1.1.22-.45 0-.884-.09-1.3-.26a2.899 2.899 0 0 1-1.066-.73c-.248-.3-.44-.65-.575-1.05-.14-.41-.21-.84-.21-1.29 0-.86.15-1.65.45-2.37.3-.73.74-1.37 1.3-1.93.24-.25.53-.48.84-.7.31-.21.61-.39.89-.54.283-.143.525-.262.73-.352a7.5 7.5 0 0 0 .373-.17l1.353 2c-.25.09-.524.21-.83.355-.304.143-.59.323-.86.54-.27.21-.496.47-.676.76-.18.29-.28.63-.303 1.013.656 0 1.23.19 1.727.573.5.38.747.936.747 1.657zm265.16 58.942c0-.294.057-.588.168-.88.113-.294.283-.558.508-.795.226-.237.502-.43.828-.575.328-.146.694-.22 1.1-.22.45 0 .886.085 1.303.253.418.17.772.412 1.065.73.25.292.44.642.575 1.047.135.406.203.834.203 1.286 0 .855-.152 1.645-.457 2.367a6.017 6.017 0 0 1-1.31 1.928c-.25.248-.53.48-.85.693-.32.215-.62.395-.9.54-.28.147-.53.267-.73.356s-.33.146-.37.17l-1.36-1.996c.25-.09.52-.21.83-.355s.59-.32.86-.54c.27-.21.495-.47.675-.76.18-.29.28-.63.303-1.01-.653 0-1.23-.19-1.724-.57-.497-.38-.745-.93-.745-1.65zm-7.867 0c0-.294.05-.588.17-.88.11-.294.28-.558.5-.795s.5-.43.83-.575c.32-.146.69-.22 1.1-.22.45 0 .88.085 1.3.253.42.17.77.412 1.06.73a3 3 0 0 1 .57 1.047c.13.406.2.834.2 1.286 0 .855-.157 1.645-.46 2.367a6.069 6.069 0 0 1-1.3 1.928c-.25.248-.53.48-.848.693s-.61.395-.894.54c-.283.147-.526.267-.73.356s-.327.146-.37.17l-1.356-1.996c.25-.09.524-.21.83-.355.3-.14.59-.32.86-.54.27-.21.496-.47.677-.76s.283-.63.306-1.01c-.654 0-1.23-.19-1.727-.57-.493-.38-.74-.93-.74-1.65z"/></svg>